<?xml version="1.0" standalone="no"?><!DOCTYPE svg PUBLIC "-//W3C//DTD SVG 1.1//EN" "http://www.w3.org/Graphics/SVG/1.1/DTD/svg11.dtd"><svg class="icon" width="200px" height="200.00px" viewBox="0 0 1024 1024" version="1.1" xmlns="http://www.w3.org/2000/svg"><path d="M798.208 522.24c0-15.872-1.536-31.232-3.584-46.592-1.024-5.632-6.144-10.24-12.288-10.24h-97.28l59.904-89.6c3.072-4.096 3.072-9.728 0-13.824-17.92-24.576-40.448-45.056-65.536-62.976-6.144-4.608-15.36-3.072-19.456 3.584l-90.112 135.168v169.472l90.112 134.656c4.608 6.656 13.312 8.192 19.968 3.584 24.576-17.408 46.08-36.864 65.024-62.464 3.584-4.608 3.584-10.752 0.512-15.36L686.08 579.072h97.28c5.632 0 11.264-4.608 12.288-10.24 1.024-15.36 2.56-30.72 2.56-46.592" fill="#040000" /><path d="M513.024 247.808c-15.872 0-31.744 1.536-46.592 3.584-5.632 1.024-9.728 6.144-9.728 11.776v174.08l56.832 84.992-56.832 84.992v174.08c0 5.632 4.096 11.264 9.728 11.776 15.36 2.56 30.72 3.584 46.592 3.584 15.872 0 31.744-1.536 46.592-3.584 5.632-1.024 9.728-6.144 9.728-11.776V263.68c0-5.632-4.096-11.264-9.728-11.776-15.36-3.072-30.72-4.096-46.592-4.096" fill="#F4A914" /><path d="M456.192 437.76L366.592 302.592c-4.096-6.656-13.312-8.192-19.456-3.584-24.576 17.92-46.592 37.888-65.024 62.976-3.072 4.608-3.072 10.24 0 14.848L340.48 465.92H243.712c-5.632 0-11.264 4.608-12.288 10.24-2.56 14.848-3.584 30.72-3.584 46.592 0 15.872 1.536 31.232 3.584 46.592 1.024 5.632 6.144 10.24 12.288 10.24h96.768l-59.392 89.088c-3.072 4.096-3.072 9.728 0 14.336 18.432 25.6 40.448 45.568 65.024 62.976 6.656 4.608 15.872 3.072 19.968-3.584L455.68 607.744l56.832-84.992-56.32-84.992z" fill="#040000" /></svg>